<svg xmlns="http://www.w3.org/2000/svg" width="306.743" height="217.635" viewBox="0 0 306.743 217.635">
  <path id="line" d="M299.531,82.291c-1.772.1-2.131-.167-1.926-1.425.038-.18-.128-.308-.4-.308-.8,0-.462-.911.8-2.2a16.237,16.237,0,0,1,6.034-3.762c2.645-1,2.837-1.014,3.916-.205.462.347.68.655.475.668s-.116.347.18.706C310.058,77.528,303.767,82.06,299.531,82.291ZM285.19,83.306a23.218,23.218,0,0,0-4.827,1.849,19.083,19.083,0,0,0-4.031,2.247.934.934,0,0,1-.835.436c-.873,0-7.613,3.223-7.819,3.736a.64.64,0,0,1-.6.359,34.124,34.124,0,0,0-4.416,1.887c-3.415,1.63-4.969,2.337-9.834,4.494-.5.218-2.709,1.232-4.9,2.247s-4.134,1.874-4.314,1.913-1.669.668-3.312,1.412c-5.135,2.337-15.573,6.291-16.562,6.278a23.883,23.883,0,0,1-2.645-.3c-1.823-.308-6.278.963-6.278,1.785,0,.27-.116.347-.282.205a7.254,7.254,0,0,0-2.837.886c-1.412.616-3.3,1.438-4.173,1.823s-2.837,1.271-4.391,2a20.136,20.136,0,0,1-3.235,1.322,3.678,3.678,0,0,0-1.477.9c-.591.526-1.181.822-1.361.693a7.215,7.215,0,0,0-2.786.976c-1.348.668-3.685,1.669-5.187,2.234s-5.97,2.478-9.873,4.237c-10.065,4.532-21.466,9.308-25.087,10.515-1.695.565-3.056,1.207-3.056,1.451s-.154.347-.385.205a21.373,21.373,0,0,0-4.9,1.053,53.984,53.984,0,0,1-7.459,1.566,60.659,60.659,0,0,0-12.068,2.131c-8.64,2.26-20.76,7.01-39.145,15.381-13.031,5.931-31.352,15.15-38.246,19.258-1.515.912-5.533,3.21-9,5.161A50.176,50.176,0,0,0,33.6,187.5c0,.167-.732.578-1.592.886a8.321,8.321,0,0,0-2.2,1.117,10.227,10.227,0,0,1-1.476,1.066c-.5.3-.835.745-.77,1.027a.374.374,0,0,1-.347.5c-.68,0-.552.95.27,1.862a2.013,2.013,0,0,0,2.17.552,4.191,4.191,0,0,0,1.656-.591,6.875,6.875,0,0,1,1.592-1c.757-.385,4.737-2.491,8.884-4.7,15.342-8.191,17.82-9.475,30.273-15.663,18.667-9.27,38.952-18.372,49.172-22.031a74.415,74.415,0,0,1,16.305-4.211c7.434-1.078,21.851-6.073,34.6-12,1.541-.719,4.057-1.823,5.546-2.452s4.288-1.849,6.15-2.709,4.288-1.939,5.354-2.388a5.053,5.053,0,0,0,1.939-1.156c0-.193.6-.488,1.335-.642a21.959,21.959,0,0,0,3.646-1.412,21.89,21.89,0,0,1,2.529-1.117c.231,0,3.595-1.515,9.693-4.365a45.345,45.345,0,0,1,4.622-2,28.618,28.618,0,0,0,3.466-1.412c2.863-1.3,3.248-1.374,4.8-.86a10.618,10.618,0,0,0,6.959-.655c.77-.347,2.966-1.155,4.827-1.772,4.853-1.643,6.381-2.221,12.749-4.866,3.146-1.31,6.817-2.786,8.191-3.3A15.383,15.383,0,0,0,256.688,102a2.155,2.155,0,0,1,.912-.424c1.194-.257,9.154-3.7,14.341-6.2,6.509-3.146,10.515-5.02,12.569-5.854a8.869,8.869,0,0,0,2.529-1.63A2.71,2.71,0,0,0,285.19,83.306Z" transform="translate(48.062 -78.476) rotate(22)" fill="#ff7d44"/>
</svg>
