<svg xmlns="http://www.w3.org/2000/svg" width="52.93" height="41.5" viewBox="0 0 52.93 41.5">
  <path id="Path_251" data-name="Path 251" d="M22.732,47.118c-4.914,4.569-13.284,3.361-17.2-1.477C.892,39.926-.034,29.1,8.046,19.408A39.145,39.145,0,0,1,22.531,8.478l2.6,4.195C17.1,16.566,11.1,21.844,10.247,30.693c3.625,0,6.632-.131,9.31.827a8.726,8.726,0,0,1,5.662,5.435A9.17,9.17,0,0,1,22.732,47.118Zm29.127,0c-4.914,4.569-13.284,3.361-17.2-1.477-4.638-5.714-5.564-16.544,2.516-26.232A39.145,39.145,0,0,1,51.658,8.478l2.6,4.195c-8.033,3.893-14.038,9.171-14.888,18.02,3.625,0,6.632-.131,9.31.827a8.726,8.726,0,0,1,5.662,5.435A9.17,9.17,0,0,1,51.86,47.118Z" transform="translate(54.93 49.978) rotate(180)" fill="#ff7d44"/>
</svg>
