<svg xmlns="http://www.w3.org/2000/svg" width="534.269" height="418.895" viewBox="0 0 534.269 418.895">
  <path id="Path_253" data-name="Path 253" d="M211.273,398.5c-49.606,46.123-134.087,33.928-173.641-14.909-46.815-57.679-56.162-167,25.4-264.786Q123.707,46.049,209.235,8.478l26.29,42.342C154.437,90.114,93.83,143.39,85.241,232.711c36.586,0,66.94-1.325,93.977,8.349C210,252.075,228.7,272.5,236.37,295.926,248.542,332.6,242.642,369.334,211.273,398.5Zm294.007,0c-49.606,46.123-134.087,33.928-173.641-14.909-46.815-57.679-56.162-167,25.4-264.786Q417.714,46.049,503.243,8.478l26.29,42.342c-81.088,39.294-141.7,92.57-150.284,181.891,36.586,0,66.94-1.325,93.977,8.349,30.781,11.014,49.478,31.441,57.152,54.865C542.55,332.6,536.649,369.334,505.28,398.5Z" transform="translate(536.269 427.374) rotate(180)" fill="#fff" opacity="0.507"/>
</svg>
